<?xml version="1.0" encoding="UTF-8" standalone="no"?>
<!-- Created with Inkscape (http://www.inkscape.org/) -->

<svg
   xmlns:dc="http://purl.org/dc/elements/1.1/"
   xmlns:cc="http://creativecommons.org/ns#"
   xmlns:rdf="http://www.w3.org/1999/02/22-rdf-syntax-ns#"
   xmlns:svg="http://www.w3.org/2000/svg"
   xmlns="http://www.w3.org/2000/svg"
   xmlns:sodipodi="http://sodipodi.sourceforge.net/DTD/sodipodi-0.dtd"
   xmlns:inkscape="http://www.inkscape.org/namespaces/inkscape"
   width="182.62378mm"
   height="32.681019mm"
   viewBox="0 0 182.62378 32.681019"
   version="1.1"
   id="svg8"
   inkscape:version="0.92.3 (2405546, 2018-03-11)"
   sodipodi:docname="TT_Text.svg">
  <defs
     id="defs2" />
  <sodipodi:namedview
     id="base"
     pagecolor="#ffffff"
     bordercolor="#666666"
     borderopacity="1.0"
     inkscape:pageopacity="0.0"
     inkscape:pageshadow="2"
     inkscape:zoom="0.64"
     inkscape:cx="101.66839"
     inkscape:cy="191.52413"
     inkscape:document-units="mm"
     inkscape:current-layer="layer1"
     showgrid="false"
     inkscape:window-width="1920"
     inkscape:window-height="1017"
     inkscape:window-x="-8"
     inkscape:window-y="-8"
     inkscape:window-maximized="1"
     viewbox-width="205.9"
     fit-margin-top="0"
     fit-margin-left="0"
     fit-margin-right="0"
     fit-margin-bottom="0" />
  <metadata
     id="metadata5">
    <rdf:RDF>
      <cc:Work
         rdf:about="">
        <dc:format>image/svg+xml</dc:format>
        <dc:type
           rdf:resource="http://purl.org/dc/dcmitype/StillImage" />
        <dc:title></dc:title>
      </cc:Work>
    </rdf:RDF>
  </metadata>
  <g
     inkscape:label="Layer 1"
     inkscape:groupmode="layer"
     id="layer1">
    <text
       xml:space="preserve"
       style="font-style:normal;font-variant:normal;font-weight:normal;font-stretch:normal;font-size:6.3499999px;line-height:1.25;font-family:'Harry P';-inkscape-font-specification:'Harry P, Normal';font-variant-ligatures:normal;font-variant-caps:normal;font-variant-numeric:normal;font-feature-settings:normal;text-align:start;letter-spacing:0px;word-spacing:0px;writing-mode:lr-tb;text-anchor:start;fill:#000000;fill-opacity:1;stroke:none;stroke-width:0.26458332"
       x="62.192364"
       y="158.03551"
       id="text821"><tspan
         sodipodi:role="line"
         id="tspan819"
         x="62.192364"
         y="163.96425"
         style="font-style:normal;font-variant:normal;font-weight:normal;font-stretch:normal;font-size:6.3499999px;font-family:'Harry P';-inkscape-font-specification:'Harry P, Normal';font-variant-ligatures:normal;font-variant-caps:normal;font-variant-numeric:normal;font-feature-settings:normal;text-align:start;writing-mode:lr-tb;text-anchor:start;stroke-width:0.26458332" /></text>
    <path
       style="font-style:normal;font-variant:normal;font-weight:normal;font-stretch:normal;font-size:6.3499999px;line-height:1.25;font-family:'Baskerville Old Face';-inkscape-font-specification:'Baskerville Old Face, Normal';font-variant-ligatures:normal;font-variant-caps:normal;font-variant-numeric:normal;font-feature-settings:normal;text-align:start;letter-spacing:0px;word-spacing:0px;writing-mode:lr-tb;text-anchor:start;fill:#000000;fill-opacity:1;stroke:none;stroke-width:1.02840781"
       d="M 1.21722,0 0,5.88927 C 0.3291,5.34079 0.81198,4.88031 1.44821,4.50733 2.08446,4.11242 2.70996,3.91481 3.32426,3.91481 l 4.21205,0.0684 -0.0663,16.02668 1.25135,-1.90819 0.13259,-0.26315 -0.19886,8.5888 1.05452,-1.64505 0.72311,7.89786 2.37015,-13.59228 -1.18508,0.78939 1.24935,-8.16097 -1.64505,0.7251 1.02038,-8.42609 4.37676,0.0641 c 1.1189,-0.13177 2.22727,0.40626 3.32424,1.6129 L 18.98939,0.16262 c -2.25975,0.21961 -4.90437,0.33155 -7.932,0.33155 -3.7955,0 -7.07582,-0.16519 -9.84018,-0.49414 z m 107.61122,0.002 -1.2192,5.89125 c 0.32922,-0.54848 0.81197,-1.009 1.44818,-1.38191 0.63625,-0.39491 1.26176,-0.59256 1.87605,-0.59256 l 4.21207,0.0665 -0.0641,16.02672 1.24936,-1.91022 0.13255,-0.26314 -0.19901,8.5888 1.05455,-1.64505 0.72308,7.89786 2.37015,-13.59026 -1.18507,0.78939 1.24936,-8.16097 -1.64505,0.72308 1.02035,-8.42411 4.37676,0.0665 c 1.11892,-0.13177 2.22731,0.40626 3.32427,1.61294 l -0.95408,-5.52969 c -2.25976,0.21922 -4.90437,0.32922 -7.93203,0.32922 -3.79551,0 -7.0738,-0.16519 -9.83816,-0.4941 z M 37.22153,7.42783 c -2.07327,0.24682 -4.53299,0.37159 -7.37963,0.37159 -2.27072,0 -4.25267,-0.0805 -5.94748,-0.24526 l -0.71708,4.14576 c 0.82273,-0.90499 1.65552,-1.3079 2.4947,-1.20917 l 3.28206,-0.0502 0.76528,6.31909 -1.23529,-0.5423 0.93802,6.12022 -0.88781,-0.59255 1.77762,10.19369 0.54233,-5.92339 0.78938,1.23327 -0.14661,-6.44164 0.0984,0.19901 0.93802,1.43015 -0.0502,-12.01953 3.15955,-0.0501 c 0.46072,0 0.92884,0.14965 1.40603,0.44594 0.47717,0.27986 0.83983,0.6251 1.08665,1.03645 z m 106.81986,0.004 c -2.07331,0.24682 -4.53321,0.36964 -7.37966,0.36964 -2.27053,0 -4.25277,-0.0824 -5.94746,-0.2472 l -0.71709,4.14778 c 0.82266,-0.90499 1.6536,-1.3079 2.4927,-1.20917 l 3.28404,-0.0501 0.76529,6.31908 -1.23529,-0.54432 0.93802,6.12221 -0.88781,-0.59256 1.77764,10.19369 0.5423,-5.92339 0.78939,1.23327 -0.14848,-6.44159 0.10028,0.19667 0.936,1.43217 -0.0482,-12.01953 3.15954,-0.0501 c 0.46067,0 0.92881,0.1477 1.40604,0.44392 0.47716,0.27986 0.83984,0.62506 1.08666,1.03644 z m 34.36124,1.01234 c -0.543,0 -1.70382,0.70602 -3.48091,2.12108 l -2.71562,2.17332 -0.36964,0.44392 c -0.0987,0.0657 -0.14848,0.16364 -0.14848,0.29541 0,0.21377 1.19347,1.69515 3.57937,4.44303 2.38585,2.73148 3.57932,4.28756 3.57932,4.66602 0,0.16442 -0.0575,0.28724 -0.17258,0.36965 l 0.19668,-0.0501 c -0.78982,0.8721 -1.32512,1.55514 -1.60486,2.04878 -0.27986,0.0824 -0.83036,-0.41843 -1.6531,-1.50442 -0.77333,-1.0202 -1.21656,-1.73581 -1.33172,-2.14724 0.0311,-0.27986 0.17102,-0.55221 0.4178,-0.81547 0.23049,-0.19746 0.46063,-0.40276 0.69097,-0.61666 l -1.87403,0.44392 -0.8637,0.5423 c -0.39491,0.24682 -0.59256,0.55194 -0.59256,0.91393 0,0.29618 0.213,0.90436 0.64075,1.82583 l 3.08523,3.70386 c 0.0311,0.0494 0.0906,0.0742 0.17258,0.0742 0.57588,0 1.7444,-0.70804 3.50504,-2.12306 1.33282,-1.0696 2.22879,-1.80255 2.6895,-2.19746 l -0.0233,-0.19667 0.2713,-0.0502 c 0.1481,-0.13176 0.22311,-0.28685 0.22311,-0.46802 0,-0.52648 -0.79821,-1.63743 -2.39429,-3.33227 -2.20492,-2.35297 -3.81852,-4.1872 -4.83871,-5.50357 -0.1481,-0.19746 -0.22117,-0.39507 -0.22117,-0.59252 0,-0.23049 0.12477,-0.5355 0.37159,-0.91393 0.24682,-0.39491 0.47704,-0.61751 0.69093,-0.66687 0.37859,-0.0824 1.07881,0.32067 2.099,1.20917 1.0202,0.8721 1.59577,1.52254 1.72742,1.95037 -0.0311,0.24682 -0.0906,0.38674 -0.17258,0.41978 -0.24682,0.14809 -0.46176,0.31329 -0.64278,0.49414 l 0.0272,0.17258 2.44249,-0.61665 c 0.41139,-0.24682 0.61662,-0.5519 0.61662,-0.91389 0,-0.29618 -0.21301,-0.9044 -0.64076,-1.82583 l -3.08522,-3.7039 c -0.0494,-0.0494 -0.11467,-0.0723 -0.19668,-0.0723 z M 69.8092,9.92049 l -0.026,0.0233 c 0,0.002 0.0564,5.5e-4 0.0583,0.002 z m 3.38049,0.0272 -2.1974,0.0272 c -0.76608,0.0155 -1.11093,0.003 -1.14893,-0.0233 l 0.65681,0.51622 c 0.18102,0.18113 0.2635,0.41127 0.24706,0.69097 -0.18102,4.22883 -0.20597,8.06993 -0.0743,11.52538 0.14808,0.64173 0.84644,1.5148 2.09699,2.61725 0.69109,0.60884 1.40675,1.21698 2.1472,1.82579 l 0.74119,0.12243 c 1.21761,-0.18113 2.47626,-0.79681 3.77616,-1.84993 1.06956,-0.87206 1.55499,-1.52253 1.45626,-1.95036 -0.0311,-4.55789 -0.0404,-8.07099 -0.0233,-10.53916 0,-0.60881 0.0727,-1.06167 0.22078,-1.35785 0.0311,-0.0657 0.18074,-0.24604 0.44388,-0.5423 0,-0.0824 -0.57557,-0.13216 -1.72737,-0.14848 -1.46447,-0.0156 -2.39305,-0.0665 -2.78796,-0.14848 0.0155,0.0311 0.1718,0.28063 0.46802,0.74115 0.24682,0.37859 0.34672,0.6586 0.29735,0.83961 0.0494,5.89071 0.082,9.96208 0.0983,12.21636 -0.24682,0.46071 -0.98742,0.88858 -2.22152,1.28349 -0.3125,-0.14809 -0.66765,-0.40326 -1.06256,-0.76525 -0.44427,-0.39491 -0.71476,-0.73062 -0.81348,-1.01036 l 0.0501,-12.56385 c -0.0156,-0.14809 -0.0272,-0.28802 -0.0272,-0.41978 0,-0.41139 0.17257,-0.71445 0.51824,-0.91191 0.0155,-0.0494 -0.0739,-0.0917 -0.27131,-0.12438 -0.19745,-0.0311 -0.48524,-0.0501 -0.86371,-0.0501 z m 13.63243,0.0501 -3.92479,0.29735 h -0.49414 c 0.16441,0.0494 0.31445,0.16441 0.4459,0.34554 l 0.2954,0.49212 0.69094,5.8752 -1.23327,-0.54234 0.93802,6.12023 -0.88983,-0.59256 1.77764,10.1937 0.54233,-5.92336 0.79138,1.23328 -0.14848,-6.4416 0.0983,0.19668 0.93802,1.43212 -0.0233,-5.99771 3.75206,7.08437 4.07148,-8.41606 -0.0501,7.08235 0.93803,-1.43014 0.10028,-0.19901 -0.14848,6.44163 0.78935,-1.23331 0.54234,5.9234 1.77759,-10.1937 -0.88776,0.59256 0.93798,-6.12023 -1.23529,0.5423 0.71709,-5.82494 c 0.32922,-0.59236 0.54203,-0.90514 0.64076,-0.93802 h -4.91106 c 0.32922,0.0311 0.52672,0.15586 0.59252,0.36964 0.0156,0.0494 0.0233,0.23943 0.0233,0.56846 0,0.0987 -0.0979,0.3712 -0.2954,0.81547 l -3.55523,8.11883 -3.25796,-8.26747 c -0.11505,-0.29618 -0.17257,-0.47851 -0.17257,-0.54432 0,-0.60884 0.12282,-0.94447 0.36964,-1.01032 z m -34.94176,0.76529 c 0.29619,0.31251 0.55904,0.62536 0.78939,0.93799 l 0.69297,5.80088 -1.2353,-0.54432 0.93802,6.12221 -0.8878,-0.59252 1.77561,10.1937 0.54433,-5.92344 0.78938,1.23331 -0.14863,-6.44163 0.0984,0.19667 0.93802,1.43217 -0.0482,-7.20689 3.80029,10.26801 c 0.24681,0.67461 0.36956,0.97006 0.36956,0.88777 0,0.14809 -0.0978,0.32067 -0.29525,0.51824 -0.19745,0.19746 -0.37015,0.31251 -0.51822,0.34555 h 4.93716 c -0.49364,-0.13177 -0.74118,-0.5519 -0.74118,-1.25944 v -13.6987 c 0,-0.67465 0.26284,-1.08518 0.78938,-1.23327 v -0.0233 h -4.09756 l 0.026,0.0742 c 0.49363,0.13176 0.73917,0.52484 0.73917,1.18305 V 24.53663 L 56.24895,12.36847 c -0.0163,-0.0311 -0.074,-0.13294 -0.17273,-0.29735 -0.0987,-0.16442 -0.14864,-0.27014 -0.14864,-0.3195 0,-0.55944 0.13243,-0.87215 0.39569,-0.93799 l -3.75207,-0.0272 z m 106.81983,0.002 c 0.29618,0.31251 0.55901,0.62541 0.78939,0.93803 l 0.69097,5.79886 -1.23327,-0.54238 0.93803,6.12023 -0.88785,-0.59252 1.77565,10.1937 0.54432,-5.9234 0.78939,1.23529 -0.14848,-6.44159 0.0983,0.19667 0.93799,1.43213 -0.0482,-7.20887 3.8003,10.26801 c 0.24681,0.67457 0.36964,0.97208 0.36964,0.88979 0,0.14809 -0.098,0.32067 -0.29541,0.51824 -0.19745,0.19746 -0.37003,0.31251 -0.5182,0.34555 h 4.93516 c -0.49364,-0.13177 -0.73917,-0.55186 -0.73917,-1.2594 v -13.6987 c 0,-0.67465 0.26275,-1.08522 0.78939,-1.23327 v -0.0272 h -4.09757 l 0.0233,0.0742 c 0.49364,0.13176 0.74119,0.52687 0.74119,1.18507 v 11.50129 l -4.88695,-12.16812 c -0.0155,-0.0311 -0.0738,-0.1306 -0.17258,-0.29541 -0.0987,-0.16441 -0.14654,-0.27208 -0.14654,-0.32144 0,-0.55944 0.13255,-0.87222 0.39573,-0.93803 l -3.75412,-0.0233 z m -140.65886,0.0482 c 0.543,0.24682 0.8481,0.65739 0.91392,1.23328 l 0.12252,13.30301 c 0,0.70757 -0.45282,1.20059 -1.35783,1.48033 l 5.15812,0.0742 c -0.6911,-0.27986 -1.07671,-0.66532 -1.15897,-1.15896 L 21.59456,11.84961 c 0,-0.39491 0.18999,-0.74026 0.56843,-1.03645 z m 47.04965,0 c 0.543,0.24682 0.84811,0.65739 0.91393,1.23328 l 0.12251,13.30301 c 0,0.70757 -0.45283,1.20059 -1.35783,1.48033 l 5.15812,0.0742 C 69.23662,26.62424 68.85102,26.23878 68.76874,25.74514 L 68.64421,11.84961 c 0,-0.39491 0.18999,-0.74026 0.56844,-1.03645 z m 59.77017,0 c 0.543,0.24682 0.84812,0.65941 0.91392,1.23526 l 0.12244,13.30305 c 0,0.70754 -0.45286,1.20059 -1.35785,1.48033 l 5.15811,0.0742 c -0.69105,-0.27986 -1.07667,-0.66532 -1.15896,-1.15896 l -0.12438,-13.89755 c 0,-0.39491 0.19007,-0.74026 0.56846,-1.03645 z m -82.35496,0.24488 c 0.27974,0.14809 0.41779,0.53573 0.41779,1.16097 0,0.21378 -0.0652,0.52668 -0.19683,0.93803 l -1.7515,5.50357 c -1.02018,0.14809 -1.90852,0.741 -2.66543,1.77763 l 1.11076,1.20918 -0.59254,-1.08666 c 0.52655,-0.55948 1.14238,-0.86258 1.84993,-0.91195 l -2.31995,7.23103 c -0.14809,0.46071 -0.24592,0.73326 -0.29525,0.81551 -0.0987,0.16442 -0.34624,0.31212 -0.74117,0.44392 l 1.23329,0.0482 h 1.62897 l 1.01235,-0.0482 C 40.71943,27.94194 40.48155,27.702 40.48155,27.4223 c 0,-0.18113 0.0499,-0.42655 0.14863,-0.73917 l 1.90014,-5.8993 0.0984,-0.34554 c 1.66189,1.57963 3.00305,2.47564 4.02324,2.68953 l 0.64074,2.099 c 0.11517,0.37859 0.17273,0.61631 0.17273,0.71504 0,0.41135 -0.17269,0.6589 -0.51821,0.74119 l -0.61664,0.41978 h 4.96125 l -0.71506,-0.41978 c -0.2139,-0.19745 -0.37128,-0.42006 -0.47002,-0.66687 -0.0163,-0.0155 -0.10661,-0.27947 -0.27115,-0.78936 L 48.84938,22.1898 c 0.36198,-0.37859 0.72265,-0.90417 1.08464,-1.57878 -0.62527,0.34554 -1.07808,0.58346 -1.35781,0.71503 l -2.71363,-8.41606 c -0.0987,-0.31251 -0.14864,-0.56784 -0.14864,-0.76529 0,-0.57592 0.15536,-0.93857 0.46801,-1.08666 z m 106.81784,0.002 c 0.27985,0.14809 0.41978,0.53569 0.41978,1.16097 0,0.21378 -0.0649,0.5266 -0.19668,0.93803 l -1.75151,5.50357 c -1.02023,0.14809 -1.91251,0.741 -2.66944,1.7776 l 1.11278,1.20921 -0.59454,-1.0867 c 0.52656,-0.55944 1.14632,-0.86456 1.85393,-0.91393 l -2.32195,7.23305 c -0.14809,0.46068 -0.24604,0.7312 -0.29541,0.81349 -0.0987,0.16442 -0.34632,0.31212 -0.74115,0.44392 l 1.23327,0.0501 h 1.629 l 1.01433,-0.0501 c -0.47724,-0.19745 -0.71706,-0.43537 -0.71706,-0.71507 0,-0.18113 0.0478,-0.42857 0.14654,-0.74119 l 1.90217,-5.89728 0.0983,-0.34554 c 1.66188,1.57963 3.00305,2.47564 4.02324,2.6895 l 0.64076,2.09701 c 0.11505,0.37859 0.17258,0.61833 0.17258,0.71706 0,0.41135 -0.17258,0.65688 -0.51824,0.73917 l -0.61662,0.41978 h 4.96123 l -0.71503,-0.41978 c -0.21378,-0.19745 -0.3712,-0.41804 -0.47004,-0.66485 -0.0155,-0.0155 -0.1065,-0.28141 -0.27131,-0.79138 l -0.98824,-3.03504 c 0.36187,-0.37858 0.72467,-0.90409 1.08666,-1.57874 -0.62525,0.34555 -1.07807,0.58342 -1.35781,0.71507 l -2.71364,-8.41606 c -0.0987,-0.31251 -0.14848,-0.56784 -0.14848,-0.76529 0,-0.57592 0.15548,-0.93857 0.46802,-1.08666 z m -105.09044,4.04734 1.7033,5.67631 0.24507,0.83961 c -0.85564,-0.18113 -1.9416,-0.88139 -3.25797,-2.099 z m 106.81983,0 1.7013,5.67833 0.2472,0.83759 c -0.85566,-0.18113 -1.94162,-0.87933 -3.25795,-2.09702 z"
       id="text825"
       inkscape:connector-curvature="0" />
  </g>
</svg>
